<?xml version="1.0" encoding="utf-8"?>
<!-- Generator: Adobe Illustrator 27.5.0, SVG Export Plug-In . SVG Version: 6.00 Build 0)  -->
<svg version="1.1" xmlns="http://www.w3.org/2000/svg" xmlns:xlink="http://www.w3.org/1999/xlink" x="0px" y="0px"
	 viewBox="0 0 500 500" style="enable-background:new 0 0 500 500;" xml:space="preserve">
<g id="Background_complete">
	<g>
		<g>
			<g>
				<g>
					<g>
						<path style="fill:#E0E0E0;" d="M443.92,317.01H263.174c-3.232,0-5.862-2.63-5.862-5.862V47.875
							c0-3.232,2.63-5.862,5.862-5.862H443.92c3.232,0,5.862,2.629,5.862,5.862v263.273
							C449.783,314.381,447.153,317.01,443.92,317.01z M263.174,42.263c-3.095,0-5.612,2.518-5.612,5.612v263.273
							c0,3.095,2.518,5.612,5.612,5.612H443.92c3.095,0,5.612-2.518,5.612-5.612V47.875c0-3.094-2.518-5.612-5.612-5.612H263.174z"
							/>
					</g>
				</g>
				<g>
					<g>
						<path style="fill:#E0E0E0;" d="M235.493,317.01H54.746c-3.232,0-5.862-2.63-5.862-5.862V47.875
							c0-3.232,2.629-5.862,5.862-5.862h180.747c3.232,0,5.862,2.629,5.862,5.862v263.273
							C241.355,314.381,238.725,317.01,235.493,317.01z M54.746,42.263c-3.094,0-5.612,2.518-5.612,5.612v263.273
							c0,3.095,2.518,5.612,5.612,5.612h180.747c3.095,0,5.612-2.518,5.612-5.612V47.875c0-3.094-2.518-5.612-5.612-5.612H54.746z"
							/>
					</g>
				</g>
			</g>
			<g>
				<g>
					<rect x="0" y="378.08" style="fill:#E0E0E0;" width="500" height="0.25"/>
				</g>
			</g>
		</g>
		<rect x="51.672" y="392.344" style="fill:#E0E0E0;" width="16.06" height="0.25"/>
		<rect x="170.352" y="389.634" style="fill:#E0E0E0;" width="53.53" height="0.25"/>
		<rect x="68.732" y="401.634" style="fill:#E0E0E0;" width="36.25" height="0.25"/>
		<rect x="378.352" y="389.504" style="fill:#E0E0E0;" width="43.19" height="0.25"/>
		<rect x="430.452" y="389.504" style="fill:#E0E0E0;" width="6.33" height="0.25"/>
		<rect x="316.212" y="395.734" style="fill:#E0E0E0;" width="53.89" height="0.25"/>
	</g>
	<g>
		<g>
			<path style="fill:#EBEBEB;" d="M436.05,164.182c-2.389-1.805-5.874-2.009-8.457-0.496c-3.429-6.929-12.985-9.988-19.8-6.337
				c-1.778-7.467-9.135-13.206-16.81-13.114c-7.675,0.092-14.892,6.007-16.49,13.515c-0.254,1.193-0.422,2.5-1.275,3.372
				c-1.386,1.416-3.701,0.941-5.676,0.787c-6.216-0.485-12.47,3.879-14.161,9.88l85.599-0.311
				C439.729,168.579,438.439,165.987,436.05,164.182z"/>
		</g>
	</g>
	<g>
		<rect x="384.086" y="225.926" style="fill:#E0E0E0;" width="82.398" height="245.352"/>
		<polygon style="fill:#E0E0E0;" points="399.909,206.756 399.909,226.671 406.407,226.671 444.163,226.671 450.661,226.671 
			450.661,206.756 		"/>
		<rect x="382.391" y="224.631" style="fill:#F0F0F0;" width="85.798" height="2.148"/>
		<rect x="397.762" y="204.619" style="fill:#F0F0F0;" width="55.058" height="2.148"/>
		<rect x="366.913" y="225.926" style="fill:#F0F0F0;" width="82.398" height="245.352"/>
		<polygon style="fill:#F0F0F0;" points="382.737,206.756 382.737,226.671 389.235,226.671 426.991,226.671 433.488,226.671 
			433.488,206.756 		"/>
		<rect x="372.181" y="231.949" style="fill:#FFFFFF;" width="10.545" height="10.545"/>
		<rect x="392.613" y="231.949" style="fill:#FFFFFF;" width="10.545" height="10.545"/>
		<rect x="413.045" y="231.949" style="fill:#FFFFFF;" width="10.545" height="10.545"/>
		<rect x="433.488" y="231.949" style="fill:#FFFFFF;" width="10.545" height="10.545"/>
		<rect x="372.181" y="251.118" style="fill:#FFFFFF;" width="10.545" height="10.545"/>
		<rect x="392.613" y="251.118" style="fill:#FFFFFF;" width="10.545" height="10.545"/>
		<rect x="413.045" y="251.118" style="fill:#FFFFFF;" width="10.545" height="10.545"/>
		<rect x="433.488" y="251.118" style="fill:#FFFFFF;" width="10.545" height="10.545"/>
		<rect x="372.181" y="270.288" style="fill:#FFFFFF;" width="10.545" height="10.545"/>
		<rect x="392.613" y="270.288" style="fill:#FFFFFF;" width="10.545" height="10.545"/>
		<rect x="413.045" y="270.288" style="fill:#FFFFFF;" width="10.545" height="10.545"/>
		<rect x="392.613" y="215.38" style="fill:#FFFFFF;" width="10.545" height="10.545"/>
		<rect x="413.045" y="215.38" style="fill:#FFFFFF;" width="10.545" height="10.545"/>
		<rect x="433.488" y="270.288" style="fill:#FFFFFF;" width="10.545" height="10.545"/>
		<rect x="372.181" y="289.446" style="fill:#FFFFFF;" width="10.545" height="10.545"/>
		<rect x="392.613" y="289.446" style="fill:#FFFFFF;" width="10.545" height="10.545"/>
		<rect x="413.045" y="289.446" style="fill:#FFFFFF;" width="10.545" height="10.545"/>
		<rect x="433.488" y="289.446" style="fill:#FFFFFF;" width="10.545" height="10.545"/>
		<rect x="372.181" y="308.616" style="fill:#FFFFFF;" width="10.545" height="10.545"/>
		<rect x="392.613" y="308.616" style="fill:#FFFFFF;" width="10.545" height="10.545"/>
		<rect x="413.045" y="308.616" style="fill:#FFFFFF;" width="10.545" height="10.545"/>
		<rect x="433.488" y="308.616" style="fill:#FFFFFF;" width="10.545" height="10.545"/>
		<rect x="372.181" y="327.785" style="fill:#FFFFFF;" width="10.545" height="10.545"/>
		<rect x="392.613" y="327.785" style="fill:#FFFFFF;" width="10.545" height="10.545"/>
		<rect x="413.045" y="327.785" style="fill:#FFFFFF;" width="10.545" height="10.545"/>
		<rect x="433.488" y="327.785" style="fill:#FFFFFF;" width="10.545" height="10.545"/>
		<rect x="372.181" y="346.954" style="fill:#FFFFFF;" width="10.545" height="10.545"/>
		<rect x="392.613" y="346.954" style="fill:#FFFFFF;" width="10.545" height="10.545"/>
		<rect x="413.045" y="346.954" style="fill:#FFFFFF;" width="10.545" height="10.545"/>
		<rect x="433.488" y="346.954" style="fill:#FFFFFF;" width="10.545" height="10.545"/>
		<rect x="372.181" y="365.072" style="fill:#FFFFFF;" width="10.545" height="10.545"/>
		<rect x="392.613" y="365.072" style="fill:#FFFFFF;" width="10.545" height="10.545"/>
		<rect x="413.045" y="365.072" style="fill:#FFFFFF;" width="10.545" height="10.545"/>
		<rect x="433.488" y="365.072" style="fill:#FFFFFF;" width="10.545" height="10.545"/>
		<rect x="372.181" y="383.189" style="fill:#FFFFFF;" width="10.545" height="10.545"/>
		<rect x="392.613" y="383.189" style="fill:#FFFFFF;" width="10.545" height="10.545"/>
		<rect x="413.045" y="383.189" style="fill:#FFFFFF;" width="10.545" height="10.545"/>
		<rect x="433.488" y="383.189" style="fill:#FFFFFF;" width="10.545" height="10.545"/>
		<rect x="372.181" y="401.306" style="fill:#FFFFFF;" width="10.545" height="10.545"/>
		<rect x="392.613" y="401.306" style="fill:#FFFFFF;" width="10.545" height="10.545"/>
		<rect x="413.045" y="401.306" style="fill:#FFFFFF;" width="10.545" height="10.545"/>
		<rect x="433.488" y="401.306" style="fill:#FFFFFF;" width="10.545" height="10.545"/>
		<rect x="372.181" y="419.122" style="fill:#FFFFFF;" width="10.545" height="10.545"/>
		<rect x="392.613" y="419.122" style="fill:#FFFFFF;" width="10.545" height="10.545"/>
		<rect x="413.045" y="419.122" style="fill:#FFFFFF;" width="10.545" height="10.545"/>
		<rect x="433.488" y="419.122" style="fill:#FFFFFF;" width="10.545" height="10.545"/>
		<rect x="372.181" y="436.937" style="fill:#FFFFFF;" width="10.545" height="10.545"/>
		<rect x="392.613" y="436.937" style="fill:#FFFFFF;" width="10.545" height="10.545"/>
		<rect x="413.045" y="436.937" style="fill:#FFFFFF;" width="10.545" height="10.545"/>
		<rect x="433.488" y="436.937" style="fill:#FFFFFF;" width="10.545" height="10.545"/>
		<rect x="372.181" y="454.753" style="fill:#FFFFFF;" width="10.545" height="10.545"/>
		<rect x="392.613" y="454.753" style="fill:#FFFFFF;" width="10.545" height="10.545"/>
		<rect x="413.045" y="454.753" style="fill:#FFFFFF;" width="10.545" height="10.545"/>
		<rect x="433.488" y="454.753" style="fill:#FFFFFF;" width="10.545" height="10.545"/>
		<rect x="365.208" y="224.631" style="fill:#F0F0F0;" width="85.798" height="2.148"/>
		<rect x="380.578" y="204.619" style="fill:#F0F0F0;" width="55.058" height="2.148"/>
	</g>
	<g>
		<rect x="50.25" y="163.128" style="fill:#E0E0E0;" width="82.398" height="308.667"/>
		<polygon style="fill:#E0E0E0;" points="66.073,143.399 66.073,163.313 72.571,163.313 110.327,163.313 116.825,163.313 
			116.825,143.399 		"/>
		<rect x="48.555" y="161.273" style="fill:#F0F0F0;" width="85.798" height="2.148"/>
		<rect x="63.925" y="141.262" style="fill:#F0F0F0;" width="55.058" height="2.148"/>
		<rect x="33.077" y="163.128" style="fill:#F0F0F0;" width="82.398" height="308.667"/>
		<polygon style="fill:#F0F0F0;" points="48.901,143.399 48.901,163.313 55.398,163.313 93.154,163.313 99.652,163.313 
			99.652,143.399 		"/>
		<rect x="38.344" y="168.591" style="fill:#FFFFFF;" width="10.545" height="10.545"/>
		<rect x="58.777" y="168.591" style="fill:#FFFFFF;" width="10.545" height="10.545"/>
		<rect x="79.209" y="168.591" style="fill:#FFFFFF;" width="10.545" height="10.545"/>
		<rect x="99.652" y="168.591" style="fill:#FFFFFF;" width="10.545" height="10.545"/>
		<rect x="38.344" y="187.761" style="fill:#FFFFFF;" width="10.545" height="10.545"/>
		<rect x="58.777" y="187.761" style="fill:#FFFFFF;" width="10.545" height="10.545"/>
		<rect x="79.209" y="187.761" style="fill:#FFFFFF;" width="10.545" height="10.545"/>
		<rect x="99.652" y="187.761" style="fill:#FFFFFF;" width="10.545" height="10.545"/>
		<rect x="38.344" y="206.93" style="fill:#FFFFFF;" width="10.545" height="10.545"/>
		<rect x="58.777" y="206.93" style="fill:#FFFFFF;" width="10.545" height="10.545"/>
		<rect x="79.209" y="206.93" style="fill:#FFFFFF;" width="10.545" height="10.545"/>
		<rect x="58.777" y="152.023" style="fill:#FFFFFF;" width="10.545" height="10.545"/>
		<rect x="79.209" y="152.023" style="fill:#FFFFFF;" width="10.545" height="10.545"/>
		<rect x="99.652" y="206.93" style="fill:#FFFFFF;" width="10.545" height="10.545"/>
		<rect x="38.344" y="226.089" style="fill:#FFFFFF;" width="10.545" height="10.545"/>
		<rect x="58.777" y="226.089" style="fill:#FFFFFF;" width="10.545" height="10.545"/>
		<rect x="79.209" y="226.089" style="fill:#FFFFFF;" width="10.545" height="10.545"/>
		<rect x="99.652" y="226.089" style="fill:#FFFFFF;" width="10.545" height="10.545"/>
		<rect x="38.344" y="245.258" style="fill:#FFFFFF;" width="10.545" height="10.545"/>
		<rect x="58.777" y="245.258" style="fill:#FFFFFF;" width="10.545" height="10.545"/>
		<rect x="79.209" y="245.258" style="fill:#FFFFFF;" width="10.545" height="10.545"/>
		<rect x="99.652" y="245.258" style="fill:#FFFFFF;" width="10.545" height="10.545"/>
		<rect x="38.344" y="264.428" style="fill:#FFFFFF;" width="10.545" height="10.545"/>
		<rect x="58.777" y="264.428" style="fill:#FFFFFF;" width="10.545" height="10.545"/>
		<rect x="79.209" y="264.428" style="fill:#FFFFFF;" width="10.545" height="10.545"/>
		<rect x="99.652" y="264.428" style="fill:#FFFFFF;" width="10.545" height="10.545"/>
		<rect x="38.344" y="283.597" style="fill:#FFFFFF;" width="10.545" height="10.545"/>
		<rect x="58.777" y="283.597" style="fill:#FFFFFF;" width="10.545" height="10.545"/>
		<rect x="79.209" y="283.597" style="fill:#FFFFFF;" width="10.545" height="10.545"/>
		<rect x="99.652" y="283.597" style="fill:#FFFFFF;" width="10.545" height="10.545"/>
		<rect x="38.344" y="301.714" style="fill:#FFFFFF;" width="10.545" height="10.545"/>
		<rect x="58.777" y="301.714" style="fill:#FFFFFF;" width="10.545" height="10.545"/>
		<rect x="79.209" y="301.714" style="fill:#FFFFFF;" width="10.545" height="10.545"/>
		<rect x="99.652" y="301.714" style="fill:#FFFFFF;" width="10.545" height="10.545"/>
		<rect x="38.344" y="319.831" style="fill:#FFFFFF;" width="10.545" height="10.545"/>
		<rect x="58.777" y="319.831" style="fill:#FFFFFF;" width="10.545" height="10.545"/>
		<rect x="79.209" y="319.831" style="fill:#FFFFFF;" width="10.545" height="10.545"/>
		<rect x="99.652" y="319.831" style="fill:#FFFFFF;" width="10.545" height="10.545"/>
		<rect x="38.344" y="337.949" style="fill:#FFFFFF;" width="10.545" height="10.545"/>
		<rect x="58.777" y="337.949" style="fill:#FFFFFF;" width="10.545" height="10.545"/>
		<rect x="79.209" y="337.949" style="fill:#FFFFFF;" width="10.545" height="10.545"/>
		<rect x="99.652" y="337.949" style="fill:#FFFFFF;" width="10.545" height="10.545"/>
		<rect x="38.344" y="355.764" style="fill:#FFFFFF;" width="10.545" height="10.545"/>
		<rect x="58.777" y="355.764" style="fill:#FFFFFF;" width="10.545" height="10.545"/>
		<rect x="79.209" y="355.764" style="fill:#FFFFFF;" width="10.545" height="10.545"/>
		<rect x="99.652" y="355.764" style="fill:#FFFFFF;" width="10.545" height="10.545"/>
		<rect x="38.344" y="373.58" style="fill:#FFFFFF;" width="10.545" height="10.545"/>
		<rect x="58.777" y="373.58" style="fill:#FFFFFF;" width="10.545" height="10.545"/>
		<rect x="79.209" y="373.58" style="fill:#FFFFFF;" width="10.545" height="10.545"/>
		<rect x="99.652" y="373.58" style="fill:#FFFFFF;" width="10.545" height="10.545"/>
		<rect x="38.344" y="391.396" style="fill:#FFFFFF;" width="10.545" height="10.545"/>
		<rect x="58.777" y="391.396" style="fill:#FFFFFF;" width="10.545" height="10.545"/>
		<rect x="79.209" y="391.396" style="fill:#FFFFFF;" width="10.545" height="10.545"/>
		<rect x="99.652" y="391.396" style="fill:#FFFFFF;" width="10.545" height="10.545"/>
		<rect x="38.344" y="409.212" style="fill:#FFFFFF;" width="10.545" height="10.545"/>
		<rect x="58.777" y="409.212" style="fill:#FFFFFF;" width="10.545" height="10.545"/>
		<rect x="79.209" y="409.212" style="fill:#FFFFFF;" width="10.545" height="10.545"/>
		<rect x="99.652" y="409.212" style="fill:#FFFFFF;" width="10.545" height="10.545"/>
		<rect x="38.344" y="427.027" style="fill:#FFFFFF;" width="10.545" height="10.545"/>
		<rect x="58.777" y="427.027" style="fill:#FFFFFF;" width="10.545" height="10.545"/>
		<rect x="79.209" y="427.027" style="fill:#FFFFFF;" width="10.545" height="10.545"/>
		<rect x="99.652" y="427.027" style="fill:#FFFFFF;" width="10.545" height="10.545"/>
		<rect x="38.344" y="445.532" style="fill:#FFFFFF;" width="10.545" height="10.545"/>
		<rect x="58.777" y="445.532" style="fill:#FFFFFF;" width="10.545" height="10.545"/>
		<rect x="79.209" y="445.532" style="fill:#FFFFFF;" width="10.545" height="10.545"/>
		<rect x="99.652" y="445.532" style="fill:#FFFFFF;" width="10.545" height="10.545"/>
		<rect x="31.372" y="161.273" style="fill:#F0F0F0;" width="85.798" height="2.148"/>
		<rect x="46.742" y="141.262" style="fill:#F0F0F0;" width="55.058" height="2.148"/>
	</g>
	<g>
		<g>
			<path style="fill:#EBEBEB;" d="M213.52,50.571c-2.389-1.805-5.874-2.009-8.458-0.496c-3.429-6.929-12.985-9.987-19.8-6.337
				c-1.778-7.467-9.135-13.206-16.81-13.114c-7.675,0.092-14.892,6.007-16.49,13.515c-0.254,1.193-0.422,2.5-1.275,3.372
				c-1.386,1.416-3.701,0.941-5.676,0.787c-6.216-0.485-12.47,3.879-14.161,9.88l85.599-0.311
				C217.199,54.967,215.909,52.375,213.52,50.571z"/>
		</g>
	</g>
	<g>
		<g>
			<path style="fill:#EBEBEB;" d="M389.942,71.743c-1.287-0.972-3.164-1.082-4.555-0.267c-1.847-3.732-6.994-5.38-10.665-3.413
				c-0.958-4.022-4.92-7.113-9.055-7.064c-4.134,0.05-8.021,3.236-8.882,7.279c-0.137,0.643-0.227,1.347-0.687,1.816
				c-0.747,0.763-1.993,0.507-3.057,0.424c-3.348-0.261-6.717,2.089-7.628,5.322l46.107-0.168
				C391.924,74.111,391.229,72.715,389.942,71.743z"/>
		</g>
	</g>
	<g>
		<g>
			<path style="fill:#F5F5F5;" d="M123.114,108.101c-1.847-1.395-4.542-1.553-6.539-0.383c-2.651-5.358-10.04-7.722-15.31-4.899
				c-1.375-5.773-7.063-10.211-12.998-10.14c-5.935,0.071-11.515,4.645-12.75,10.45c-0.196,0.923-0.326,1.933-0.986,2.607
				c-1.072,1.095-2.861,0.727-4.389,0.608c-4.806-0.375-9.642,2.999-10.949,7.639l66.186-0.241
				C125.959,111.5,124.961,109.496,123.114,108.101z"/>
		</g>
	</g>
	<g>
		<g>
			<path style="fill:#F5F5F5;" d="M466.798,109.637c-2.001-1.512-4.921-1.683-7.085-0.416c-2.872-5.805-10.877-8.366-16.586-5.308
				c-1.489-6.255-7.652-11.063-14.081-10.985c-6.429,0.077-12.475,5.032-13.813,11.321c-0.213,0.999-0.354,2.094-1.068,2.824
				c-1.161,1.186-3.1,0.788-4.755,0.659c-5.207-0.406-10.446,3.25-11.862,8.276l71.705-0.261
				C469.879,113.32,468.798,111.149,466.798,109.637z"/>
		</g>
	</g>
	<g>
		<g>
			<path style="fill:#F5F5F5;" d="M77.712,71.214c-1.082-0.817-2.66-0.91-3.83-0.225c-1.553-3.138-5.881-4.523-8.968-2.87
				c-0.805-3.382-4.137-5.981-7.613-5.94c-3.476,0.042-6.745,2.721-7.468,6.121c-0.115,0.54-0.191,1.132-0.578,1.527
				c-0.628,0.641-1.676,0.426-2.571,0.356c-2.815-0.22-5.648,1.757-6.414,4.475l38.769-0.141
				C79.378,73.205,78.794,72.031,77.712,71.214z"/>
		</g>
	</g>
</g>
<g id="Background_simple" style="display:none;">
	<g style="display:inline;">
		<path style="fill:#407BFF;" d="M176.297,69.636c-24.668,3.256-48.455,10.189-69.552,21.064
			c-24.865,12.817-50.271,32.784-42.767,58.901c13.854,48.216,80.312,49.094,67.042,81.514
			c-15.03,36.722-4.951,79.797,62.493,91.776c128.1,22.752,282.954-110.372,239.461-183.522
			C405.898,93.828,307.279,52.346,176.297,69.636z"/>
		<path style="opacity:0.9;fill:#FFFFFF;" d="M176.297,69.636c-24.668,3.256-48.455,10.189-69.552,21.064
			c-24.865,12.817-50.271,32.784-42.767,58.901c13.854,48.216,80.312,49.094,67.042,81.514
			c-15.03,36.722-4.951,79.797,62.493,91.776c128.1,22.752,282.954-110.372,239.461-183.522
			C405.898,93.828,307.279,52.346,176.297,69.636z"/>
	</g>
</g>
<g id="Hotel_Tower">
	<g>
		<rect x="158.979" y="97.868" style="fill:#407BFF;" width="191.449" height="50.255"/>
		<g>
			
				<rect x="169.002" y="105.116" transform="matrix(-1 -1.224647e-16 1.224647e-16 -1 353.0623 248.5343)" style="opacity:0.8;fill:#FFFFFF;" width="15.059" height="38.302"/>
			<polygon style="fill:#FFFFFF;" points="169.002,105.116 184.061,118.637 184.061,125.891 169.002,112.134 			"/>
			
				<rect x="169.002" y="105.116" transform="matrix(-1 -1.224647e-16 1.224647e-16 -1 353.0623 212.3878)" style="opacity:0.3;" width="15.059" height="2.155"/>
		</g>
		<g>
			
				<rect x="324.329" y="105.116" transform="matrix(-1 -1.224647e-16 1.224647e-16 -1 663.7174 248.5343)" style="opacity:0.8;fill:#FFFFFF;" width="15.059" height="38.302"/>
			<polygon style="fill:#FFFFFF;" points="324.329,105.116 339.388,118.637 339.388,125.891 324.329,112.134 			"/>
			
				<rect x="324.329" y="105.116" transform="matrix(-1 -1.224647e-16 1.224647e-16 -1 663.7174 212.3878)" style="opacity:0.3;" width="15.059" height="2.155"/>
		</g>
		<rect x="139.78" y="146.829" style="fill:#407BFF;" width="228.744" height="324.966"/>
		<g>
			<path style="fill:#263238;" d="M169.195,412.749v51.991l20.419,0.181c0,0-0.003-52.172,0.215-52.172
				C190.047,412.749,169.195,412.749,169.195,412.749z"/>
			<g>
				<rect x="170.739" y="414.133" style="fill:#407BFF;" width="17.529" height="49.04"/>
				<rect x="170.739" y="414.133" style="opacity:0.8;fill:#FFFFFF;" width="17.529" height="49.04"/>
				<rect x="170.739" y="414.133" style="opacity:0.2;" width="17.529" height="2.851"/>
				<path style="opacity:0.3;fill:#FFFFFF;" d="M185.995,414.133c-0.434,0-15.256,30.019-15.256,30.019v-30.019H185.995z"/>
			</g>
		</g>
		<rect x="133.595" y="143.049" style="fill:#263238;" width="240.534" height="7.56"/>
		<rect x="152.056" y="95.77" style="fill:#263238;" width="203.683" height="7.56"/>
		<rect x="187.176" y="95.77" style="opacity:0.3;" width="7.779" height="376.025"/>
		<g>
			<path style="fill:#263238;" d="M340.979,412.749v51.991l20.419,0.181c0,0-0.003-52.172,0.215-52.172
				C361.831,412.749,340.979,412.749,340.979,412.749z"/>
			<g>
				<rect x="342.523" y="414.133" style="fill:#407BFF;" width="17.529" height="49.04"/>
				<rect x="342.523" y="414.133" style="opacity:0.8;fill:#FFFFFF;" width="17.529" height="49.04"/>
				<rect x="342.523" y="414.133" style="opacity:0.2;" width="17.529" height="2.851"/>
				<path style="opacity:0.3;fill:#FFFFFF;" d="M357.779,414.133c-0.434,0-15.256,30.019-15.256,30.019v-30.019H357.779z"/>
			</g>
		</g>
		<g>
			<path style="fill:#263238;" d="M317.443,412.749v51.991l20.419,0.181c0,0-0.003-52.172,0.215-52.172
				C338.295,412.749,317.443,412.749,317.443,412.749z"/>
			<g>
				<rect x="318.987" y="414.133" style="fill:#407BFF;" width="17.529" height="49.04"/>
				<rect x="318.987" y="414.133" style="opacity:0.8;fill:#FFFFFF;" width="17.529" height="49.04"/>
				<rect x="318.987" y="414.133" style="opacity:0.2;" width="17.529" height="2.851"/>
				<path style="opacity:0.3;fill:#FFFFFF;" d="M334.243,414.133c-0.435,0-15.256,30.019-15.256,30.019v-30.019H334.243z"/>
			</g>
		</g>
		<rect x="313.251" y="95.697" style="opacity:0.3;" width="7.779" height="376.097"/>
		<rect x="361.322" y="150.609" style="opacity:0.2;fill:#FFFFFF;" width="7.309" height="240.593"/>
		<rect x="139.78" y="150.609" style="opacity:0.2;fill:#FFFFFF;" width="7.309" height="240.593"/>
		<rect x="125.544" y="201.848" style="fill:#263238;" width="254.363" height="7.56"/>
		<rect x="125.544" y="263.132" style="fill:#263238;" width="254.582" height="7.56"/>
		<rect x="125.544" y="324.576" style="fill:#263238;" width="255.916" height="7.56"/>
		<rect x="125.544" y="386.764" style="fill:#263238;" width="254.634" height="7.56"/>
		<rect x="158.979" y="103.33" style="opacity:0.2;fill:#FFFFFF;" width="6.906" height="39.72"/>
		<rect x="343.522" y="103.33" style="opacity:0.2;fill:#FFFFFF;" width="6.906" height="39.72"/>
		<rect x="194.956" y="76.475" style="fill:#407BFF;" width="118.398" height="395.319"/>
		<g>
			<rect x="324.322" y="159.501" style="opacity:0.8;fill:#FFFFFF;" width="15.059" height="38.302"/>
			<polygon style="fill:#FFFFFF;" points="339.381,159.501 324.322,173.022 324.322,180.276 339.381,166.518 			"/>
			<rect x="324.322" y="159.501" style="opacity:0.3;" width="15.059" height="2.155"/>
		</g>
		<g>
			<rect x="342.96" y="159.501" style="opacity:0.8;fill:#FFFFFF;" width="15.059" height="38.302"/>
			<polygon style="fill:#FFFFFF;" points="358.019,173.627 342.96,187.148 342.96,194.402 358.019,180.645 			"/>
			<rect x="342.96" y="159.501" style="opacity:0.3;" width="15.059" height="2.155"/>
		</g>
		<rect x="139.78" y="150.609" style="opacity:0.3;" width="54.875" height="3.195"/>
		<rect x="313.414" y="150.609" style="opacity:0.3;" width="55.221" height="3.195"/>
		<g>
			<g>
				<g>
					<path style="fill:#263238;" d="M349.256,185.828c0,5.32,0,10.64,0,15.96c0,0.483,0.75,0.483,0.75,0c0-5.32,0-10.64,0-15.96
						C350.006,185.345,349.256,185.344,349.256,185.828L349.256,185.828z"/>
				</g>
			</g>
			<g>
				<g>
					<path style="fill:#263238;" d="M340.65,185.828c0,5.32,0,10.64,0,15.96c0,0.483,0.75,0.483,0.75,0c0-5.32,0-10.64,0-15.96
						C341.4,185.345,340.65,185.344,340.65,185.828L340.65,185.828z"/>
				</g>
			</g>
			<g>
				<g>
					<path style="fill:#263238;" d="M332.043,185.828c0,5.32,0,10.64,0,15.96c0,0.483,0.75,0.483,0.75,0c0-5.32,0-10.64,0-15.96
						C332.793,185.345,332.043,185.344,332.043,185.828L332.043,185.828z"/>
				</g>
			</g>
			<g>
				<g>
					<path style="fill:#263238;" d="M323.437,185.828c0,5.32,0,10.64,0,15.96c0,0.483,0.75,0.483,0.75,0c0-5.32,0-10.64,0-15.96
						C324.187,185.345,323.437,185.344,323.437,185.828L323.437,185.828z"/>
				</g>
			</g>
			<g>
				<g>
					<path style="fill:#263238;" d="M314.83,185.828c0,5.32,0,10.64,0,15.96c0,0.483,0.75,0.483,0.75,0c0-5.32,0-10.64,0-15.96
						C315.58,185.345,314.83,185.344,314.83,185.828L314.83,185.828z"/>
				</g>
			</g>
			<g>
				<g>
					<path style="fill:#263238;" d="M357.063,185.828c0,5.32,0,10.64,0,15.96c0,0.483,0.75,0.483,0.75,0c0-5.32,0-10.64,0-15.96
						C357.813,185.345,357.063,185.344,357.063,185.828L357.063,185.828z"/>
				</g>
			</g>
			<g>
				<g>
					<path style="fill:#263238;" d="M364.602,185.828c0,5.32,0,10.64,0,15.96c0,0.483,0.75,0.483,0.75,0c0-5.32,0-10.64,0-15.96
						C365.352,185.345,364.602,185.344,364.602,185.828L364.602,185.828z"/>
				</g>
			</g>
			<g>
				<g>
					<path style="fill:#263238;" d="M372.329,185.947c0,5.32,0,10.64,0,15.96c0,0.483,0.75,0.483,0.75,0c0-5.32,0-10.64,0-15.96
						C373.079,185.464,372.329,185.464,372.329,185.947L372.329,185.947z"/>
				</g>
			</g>
			<g>
				<g>
					<path style="fill:#263238;" d="M379.279,201.728c0-5.26,0-10.521,0-15.781c0-0.483-0.75-0.483-0.75,0c0,5.26,0,10.521,0,15.781
						C378.529,202.211,379.279,202.212,379.279,201.728L379.279,201.728z"/>
				</g>
			</g>
			<g>
				<g>
					<path style="fill:#263238;" d="M314.223,186.203c16.657,0,33.315,0,49.972,0c4.724,0,9.448,0,14.171,0
						c0.483,0,0.483-0.75,0-0.75c-16.657,0-33.315,0-49.972,0c-4.724,0-9.448,0-14.171,0
						C313.74,185.453,313.739,186.203,314.223,186.203L314.223,186.203z"/>
				</g>
			</g>
		</g>
		<g>
			
				<rect x="166.227" y="159.501" transform="matrix(-1 -1.224647e-16 1.224647e-16 -1 347.5132 357.3035)" style="opacity:0.8;fill:#FFFFFF;" width="15.059" height="38.302"/>
			<polygon style="fill:#FFFFFF;" points="166.227,159.501 181.286,173.022 181.286,180.276 166.227,166.518 			"/>
			
				<rect x="166.227" y="159.501" transform="matrix(-1 -1.224647e-16 1.224647e-16 -1 347.5132 321.157)" style="opacity:0.3;" width="15.059" height="2.155"/>
		</g>
		<g>
			
				<rect x="147.589" y="159.501" transform="matrix(-1 -1.224647e-16 1.224647e-16 -1 310.2371 357.3035)" style="opacity:0.8;fill:#FFFFFF;" width="15.059" height="38.302"/>
			<polygon style="fill:#FFFFFF;" points="147.589,173.627 162.648,187.148 162.648,194.402 147.589,180.645 			"/>
			
				<rect x="147.589" y="159.501" transform="matrix(-1 -1.224647e-16 1.224647e-16 -1 310.2371 321.157)" style="opacity:0.3;" width="15.059" height="2.155"/>
		</g>
		<g>
			<g>
				<g>
					<path style="fill:#263238;" d="M155.602,185.828c0,5.32,0,10.64,0,15.96c0,0.483,0.75,0.483,0.75,0c0-5.32,0-10.64,0-15.96
						C156.352,185.345,155.602,185.344,155.602,185.828L155.602,185.828z"/>
				</g>
			</g>
			<g>
				<g>
					<path style="fill:#263238;" d="M164.208,185.828c0,5.32,0,10.64,0,15.96c0,0.483,0.75,0.483,0.75,0c0-5.32,0-10.64,0-15.96
						C164.958,185.345,164.208,185.344,164.208,185.828L164.208,185.828z"/>
				</g>
			</g>
			<g>
				<g>
					<path style="fill:#263238;" d="M172.815,185.828c0,5.32,0,10.64,0,15.96c0,0.483,0.75,0.483,0.75,0c0-5.32,0-10.64,0-15.96
						C173.565,185.345,172.815,185.344,172.815,185.828L172.815,185.828z"/>
				</g>
			</g>
			<g>
				<g>
					<path style="fill:#263238;" d="M181.421,185.828c0,5.32,0,10.64,0,15.96c0,0.483,0.75,0.483,0.75,0c0-5.32,0-10.64,0-15.96
						C182.171,185.345,181.421,185.344,181.421,185.828L181.421,185.828z"/>
				</g>
			</g>
			<g>
				<g>
					<path style="fill:#263238;" d="M190.028,185.828c0,5.32,0,10.64,0,15.96c0,0.483,0.75,0.483,0.75,0c0-5.32,0-10.64,0-15.96
						C190.778,185.345,190.028,185.344,190.028,185.828L190.028,185.828z"/>
				</g>
			</g>
			<g>
				<g>
					<path style="fill:#263238;" d="M147.795,185.828c0,5.32,0,10.64,0,15.96c0,0.483,0.75,0.483,0.75,0c0-5.32,0-10.64,0-15.96
						C148.545,185.345,147.795,185.344,147.795,185.828L147.795,185.828z"/>
				</g>
			</g>
			<g>
				<g>
					<path style="fill:#263238;" d="M140.256,185.828c0,5.32,0,10.64,0,15.96c0,0.483,0.75,0.483,0.75,0c0-5.32,0-10.64,0-15.96
						C141.006,185.345,140.256,185.344,140.256,185.828L140.256,185.828z"/>
				</g>
			</g>
			<g>
				<g>
					<path style="fill:#263238;" d="M132.529,185.947c0,5.32,0,10.64,0,15.96c0,0.483,0.75,0.483,0.75,0c0-5.32,0-10.64,0-15.96
						C133.279,185.464,132.529,185.464,132.529,185.947L132.529,185.947z"/>
				</g>
			</g>
			<g>
				<g>
					<path style="fill:#263238;" d="M127.079,201.728c0-5.26,0-10.521,0-15.781c0-0.483-0.75-0.483-0.75,0c0,5.26,0,10.521,0,15.781
						C126.329,202.211,127.079,202.212,127.079,201.728L127.079,201.728z"/>
				</g>
			</g>
			<g>
				<g>
					<path style="fill:#263238;" d="M191.385,185.453c-16.657,0-33.315,0-49.972,0c-4.724,0-9.447,0-14.171,0
						c-0.483,0-0.483,0.75,0,0.75c16.657,0,33.315,0,49.972,0c4.724,0,9.447,0,14.171,0
						C191.868,186.203,191.869,185.453,191.385,185.453L191.385,185.453z"/>
				</g>
			</g>
		</g>
		<g>
			<rect x="324.322" y="221.11" style="opacity:0.8;fill:#FFFFFF;" width="15.059" height="38.302"/>
			<polygon style="fill:#FFFFFF;" points="339.381,221.11 324.322,234.631 324.322,241.885 339.381,228.128 			"/>
			<rect x="324.322" y="221.11" style="opacity:0.3;" width="15.059" height="2.155"/>
		</g>
		<g>
			<rect x="342.96" y="221.11" style="opacity:0.8;fill:#FFFFFF;" width="15.059" height="38.302"/>
			<polygon style="fill:#FFFFFF;" points="358.019,235.237 342.96,248.758 342.96,256.012 358.019,242.254 			"/>
			<rect x="342.96" y="221.11" style="opacity:0.3;" width="15.059" height="2.155"/>
		</g>
		<rect x="139.78" y="209.408" style="opacity:0.3;" width="54.875" height="3.195"/>
		<rect x="313.414" y="209.408" style="opacity:0.3;" width="55.221" height="3.195"/>
		<g>
			<g>
				<g>
					<path style="fill:#263238;" d="M349.256,247.437c0,5.32,0,10.64,0,15.961c0,0.482,0.75,0.483,0.75,0c0-5.32,0-10.64,0-15.961
						C350.006,246.954,349.256,246.954,349.256,247.437L349.256,247.437z"/>
				</g>
			</g>
			<g>
				<g>
					<path style="fill:#263238;" d="M340.65,247.437c0,5.32,0,10.64,0,15.961c0,0.482,0.75,0.483,0.75,0c0-5.32,0-10.64,0-15.961
						C341.4,246.954,340.65,246.954,340.65,247.437L340.65,247.437z"/>
				</g>
			</g>
			<g>
				<g>
					<path style="fill:#263238;" d="M332.043,247.437c0,5.32,0,10.64,0,15.961c0,0.482,0.75,0.483,0.75,0c0-5.32,0-10.64,0-15.961
						C332.793,246.954,332.043,246.954,332.043,247.437L332.043,247.437z"/>
				</g>
			</g>
			<g>
				<g>
					<path style="fill:#263238;" d="M323.437,247.437c0,5.32,0,10.64,0,15.961c0,0.482,0.75,0.483,0.75,0c0-5.32,0-10.64,0-15.961
						C324.187,246.954,323.437,246.954,323.437,247.437L323.437,247.437z"/>
				</g>
			</g>
			<g>
				<g>
					<path style="fill:#263238;" d="M314.83,247.437c0,5.32,0,10.64,0,15.961c0,0.482,0.75,0.483,0.75,0c0-5.32,0-10.64,0-15.961
						C315.58,246.954,314.83,246.954,314.83,247.437L314.83,247.437z"/>
				</g>
			</g>
			<g>
				<g>
					<path style="fill:#263238;" d="M357.063,247.437c0,5.32,0,10.64,0,15.961c0,0.482,0.75,0.483,0.75,0c0-5.32,0-10.64,0-15.961
						C357.813,246.954,357.063,246.954,357.063,247.437L357.063,247.437z"/>
				</g>
			</g>
			<g>
				<g>
					<path style="fill:#263238;" d="M364.602,247.437c0,5.32,0,10.64,0,15.961c0,0.482,0.75,0.483,0.75,0c0-5.32,0-10.64,0-15.961
						C365.352,246.954,364.602,246.954,364.602,247.437L364.602,247.437z"/>
				</g>
			</g>
			<g>
				<g>
					<path style="fill:#263238;" d="M372.329,247.556c0,5.32,0,10.64,0,15.96c0,0.483,0.75,0.483,0.75,0c0-5.32,0-10.64,0-15.96
						C373.079,247.074,372.329,247.073,372.329,247.556L372.329,247.556z"/>
				</g>
			</g>
			<g>
				<g>
					<path style="fill:#263238;" d="M379.279,263.337c0-5.26,0-10.521,0-15.781c0-0.483-0.75-0.483-0.75,0c0,5.26,0,10.521,0,15.781
						C378.529,263.82,379.279,263.821,379.279,263.337L379.279,263.337z"/>
				</g>
			</g>
			<g>
				<g>
					<path style="fill:#263238;" d="M314.223,247.812c16.657,0,33.315,0,49.972,0c4.724,0,9.448,0,14.171,0
						c0.483,0,0.483-0.75,0-0.75c-16.657,0-33.315,0-49.972,0c-4.724,0-9.448,0-14.171,0
						C313.74,247.062,313.739,247.812,314.223,247.812L314.223,247.812z"/>
				</g>
			</g>
		</g>
		<g>
			<rect x="324.322" y="281.488" style="opacity:0.8;fill:#FFFFFF;" width="15.059" height="38.302"/>
			<polygon style="fill:#FFFFFF;" points="339.381,281.488 324.322,295.009 324.322,302.264 339.381,288.506 			"/>
			<rect x="324.322" y="281.488" style="opacity:0.3;" width="15.059" height="2.155"/>
		</g>
		<g>
			<rect x="342.96" y="281.488" style="opacity:0.8;fill:#FFFFFF;" width="15.059" height="38.302"/>
			<polygon style="fill:#FFFFFF;" points="358.019,295.615 342.96,309.136 342.96,316.39 358.019,302.632 			"/>
			<rect x="342.96" y="281.488" style="opacity:0.3;" width="15.059" height="2.155"/>
		</g>
		<rect x="313.414" y="270.692" style="opacity:0.3;" width="55.221" height="3.195"/>
		<g>
			<g>
				<g>
					<path style="fill:#263238;" d="M349.256,308.467c0,5.32,0,10.64,0,15.961c0,0.483,0.75,0.483,0.75,0c0-5.32,0-10.64,0-15.961
						C350.006,307.985,349.256,307.984,349.256,308.467L349.256,308.467z"/>
				</g>
			</g>
			<g>
				<g>
					<path style="fill:#263238;" d="M340.65,308.467c0,5.32,0,10.64,0,15.961c0,0.483,0.75,0.483,0.75,0c0-5.32,0-10.64,0-15.961
						C341.4,307.985,340.65,307.984,340.65,308.467L340.65,308.467z"/>
				</g>
			</g>
			<g>
				<g>
					<path style="fill:#263238;" d="M332.043,308.467c0,5.32,0,10.64,0,15.961c0,0.483,0.75,0.483,0.75,0c0-5.32,0-10.64,0-15.961
						C332.793,307.985,332.043,307.984,332.043,308.467L332.043,308.467z"/>
				</g>
			</g>
			<g>
				<g>
					<path style="fill:#263238;" d="M323.437,308.467c0,5.32,0,10.64,0,15.961c0,0.483,0.75,0.483,0.75,0c0-5.32,0-10.64,0-15.961
						C324.187,307.985,323.437,307.984,323.437,308.467L323.437,308.467z"/>
				</g>
			</g>
			<g>
				<g>
					<path style="fill:#263238;" d="M314.83,308.467c0,5.32,0,10.64,0,15.961c0,0.483,0.75,0.483,0.75,0c0-5.32,0-10.64,0-15.961
						C315.58,307.985,314.83,307.984,314.83,308.467L314.83,308.467z"/>
				</g>
			</g>
			<g>
				<g>
					<path style="fill:#263238;" d="M357.063,308.467c0,5.32,0,10.64,0,15.961c0,0.483,0.75,0.483,0.75,0c0-5.32,0-10.64,0-15.961
						C357.813,307.985,357.063,307.984,357.063,308.467L357.063,308.467z"/>
				</g>
			</g>
			<g>
				<g>
					<path style="fill:#263238;" d="M364.602,308.467c0,5.32,0,10.64,0,15.961c0,0.483,0.75,0.483,0.75,0c0-5.32,0-10.64,0-15.961
						C365.352,307.985,364.602,307.984,364.602,308.467L364.602,308.467z"/>
				</g>
			</g>
			<g>
				<g>
					<path style="fill:#263238;" d="M372.329,308.587c0,5.32,0,10.64,0,15.96c0,0.483,0.75,0.483,0.75,0c0-5.32,0-10.64,0-15.96
						C373.079,308.104,372.329,308.103,372.329,308.587L372.329,308.587z"/>
				</g>
			</g>
			<g>
				<g>
					<path style="fill:#263238;" d="M379.279,324.368c0-5.26,0-10.521,0-15.781c0-0.483-0.75-0.483-0.75,0c0,5.26,0,10.521,0,15.781
						C378.529,324.85,379.279,324.851,379.279,324.368L379.279,324.368z"/>
				</g>
			</g>
			<g>
				<g>
					<path style="fill:#263238;" d="M314.223,308.842c16.657,0,33.315,0,49.972,0c4.724,0,9.448,0,14.171,0
						c0.483,0,0.483-0.75,0-0.75c-16.657,0-33.315,0-49.972,0c-4.724,0-9.448,0-14.171,0
						C313.74,308.092,313.739,308.842,314.223,308.842L314.223,308.842z"/>
				</g>
			</g>
		</g>
		<g>
			
				<rect x="168.772" y="218.566" transform="matrix(-1 -1.224647e-16 1.224647e-16 -1 352.6022 475.4335)" style="opacity:0.8;fill:#FFFFFF;" width="15.059" height="38.302"/>
			<polygon style="fill:#FFFFFF;" points="168.772,218.566 183.83,232.087 183.83,239.341 168.772,225.583 			"/>
			
				<rect x="168.772" y="218.566" transform="matrix(-1 -1.224647e-16 1.224647e-16 -1 352.6022 439.2869)" style="opacity:0.3;" width="15.059" height="2.155"/>
		</g>
		<g>
			
				<rect x="150.134" y="218.566" transform="matrix(-1 -1.224647e-16 1.224647e-16 -1 315.326 475.4335)" style="opacity:0.8;fill:#FFFFFF;" width="15.059" height="38.302"/>
			<polygon style="fill:#FFFFFF;" points="150.134,232.692 165.192,246.213 165.192,253.467 150.134,239.71 			"/>
			
				<rect x="150.134" y="218.566" transform="matrix(-1 -1.224647e-16 1.224647e-16 -1 315.326 439.2869)" style="opacity:0.3;" width="15.059" height="2.155"/>
		</g>
		<g>
			<g>
				<g>
					<path style="fill:#263238;" d="M155.602,247.437c0,5.32,0,10.64,0,15.961c0,0.482,0.75,0.483,0.75,0c0-5.32,0-10.64,0-15.961
						C156.352,246.954,155.602,246.954,155.602,247.437L155.602,247.437z"/>
				</g>
			</g>
			<g>
				<g>
					<path style="fill:#263238;" d="M164.208,247.437c0,5.32,0,10.64,0,15.961c0,0.482,0.75,0.483,0.75,0c0-5.32,0-10.64,0-15.961
						C164.958,246.954,164.208,246.954,164.208,247.437L164.208,247.437z"/>
				</g>
			</g>
			<g>
				<g>
					<path style="fill:#263238;" d="M172.815,247.437c0,5.32,0,10.64,0,15.961c0,0.482,0.75,0.483,0.75,0c0-5.32,0-10.64,0-15.961
						C173.565,246.954,172.815,246.954,172.815,247.437L172.815,247.437z"/>
				</g>
			</g>
			<g>
				<g>
					<path style="fill:#263238;" d="M181.421,247.437c0,5.32,0,10.64,0,15.961c0,0.482,0.75,0.483,0.75,0c0-5.32,0-10.64,0-15.961
						C182.171,246.954,181.421,246.954,181.421,247.437L181.421,247.437z"/>
				</g>
			</g>
			<g>
				<g>
					<path style="fill:#263238;" d="M190.028,247.437c0,5.32,0,10.64,0,15.961c0,0.482,0.75,0.483,0.75,0c0-5.32,0-10.64,0-15.961
						C190.778,246.954,190.028,246.954,190.028,247.437L190.028,247.437z"/>
				</g>
			</g>
			<g>
				<g>
					<path style="fill:#263238;" d="M147.795,247.437c0,5.32,0,10.64,0,15.961c0,0.482,0.75,0.483,0.75,0c0-5.32,0-10.64,0-15.961
						C148.545,246.954,147.795,246.954,147.795,247.437L147.795,247.437z"/>
				</g>
			</g>
			<g>
				<g>
					<path style="fill:#263238;" d="M140.256,247.437c0,5.32,0,10.64,0,15.961c0,0.482,0.75,0.483,0.75,0c0-5.32,0-10.64,0-15.961
						C141.006,246.954,140.256,246.954,140.256,247.437L140.256,247.437z"/>
				</g>
			</g>
			<g>
				<g>
					<path style="fill:#263238;" d="M132.529,247.556c0,5.32,0,10.64,0,15.96c0,0.483,0.75,0.483,0.75,0c0-5.32,0-10.64,0-15.96
						C133.279,247.074,132.529,247.073,132.529,247.556L132.529,247.556z"/>
				</g>
			</g>
			<g>
				<g>
					<path style="fill:#263238;" d="M127.079,263.337c0-5.26,0-10.521,0-15.781c0-0.483-0.75-0.483-0.75,0c0,5.26,0,10.521,0,15.781
						C126.329,263.82,127.079,263.821,127.079,263.337L127.079,263.337z"/>
				</g>
			</g>
			<g>
				<g>
					<path style="fill:#263238;" d="M191.385,247.062c-16.657,0-33.315,0-49.972,0c-4.724,0-9.447,0-14.171,0
						c-0.483,0-0.483,0.75,0,0.75c16.657,0,33.315,0,49.972,0c4.724,0,9.447,0,14.171,0
						C191.868,247.812,191.869,247.062,191.385,247.062L191.385,247.062z"/>
				</g>
			</g>
		</g>
		<rect x="139.78" y="270.467" style="opacity:0.3;" width="54.875" height="3.195"/>
		<g>
			
				<rect x="168.772" y="279.625" transform="matrix(-1 -1.224647e-16 1.224647e-16 -1 352.6022 597.5519)" style="opacity:0.8;fill:#FFFFFF;" width="15.059" height="38.302"/>
			<polygon style="fill:#FFFFFF;" points="168.772,279.625 183.83,293.146 183.83,300.4 168.772,286.642 			"/>
			
				<rect x="168.772" y="279.625" transform="matrix(-1 -1.224647e-16 1.224647e-16 -1 352.6022 561.4054)" style="opacity:0.3;" width="15.059" height="2.155"/>
		</g>
		<g>
			
				<rect x="150.134" y="279.625" transform="matrix(-1 -1.224647e-16 1.224647e-16 -1 315.326 597.5519)" style="opacity:0.8;fill:#FFFFFF;" width="15.059" height="38.302"/>
			<polygon style="fill:#FFFFFF;" points="150.134,293.751 165.192,307.272 165.192,314.527 150.134,300.769 			"/>
			
				<rect x="150.134" y="279.625" transform="matrix(-1 -1.224647e-16 1.224647e-16 -1 315.326 561.4054)" style="opacity:0.3;" width="15.059" height="2.155"/>
		</g>
		<g>
			
				<rect x="168.772" y="340.952" transform="matrix(-1 -1.224647e-16 1.224647e-16 -1 352.6022 720.2051)" style="opacity:0.8;fill:#FFFFFF;" width="15.059" height="38.302"/>
			<polygon style="fill:#FFFFFF;" points="168.772,340.952 183.83,354.473 183.83,361.727 168.772,347.969 			"/>
			
				<rect x="168.772" y="340.952" transform="matrix(-1 -1.224647e-16 1.224647e-16 -1 352.6022 684.0585)" style="opacity:0.3;" width="15.059" height="2.155"/>
		</g>
		<g>
			
				<rect x="150.134" y="340.952" transform="matrix(-1 -1.224647e-16 1.224647e-16 -1 315.326 720.2051)" style="opacity:0.8;fill:#FFFFFF;" width="15.059" height="38.302"/>
			<polygon style="fill:#FFFFFF;" points="150.134,355.078 165.192,368.599 165.192,375.853 150.134,362.095 			"/>
			
				<rect x="150.134" y="340.952" transform="matrix(-1 -1.224647e-16 1.224647e-16 -1 315.326 684.0585)" style="opacity:0.3;" width="15.059" height="2.155"/>
		</g>
		<g>
			<g>
				<g>
					<path style="fill:#263238;" d="M155.602,308.496c0,5.32,0,10.64,0,15.96c0,0.483,0.75,0.483,0.75,0c0-5.32,0-10.64,0-15.96
						C156.352,308.014,155.602,308.013,155.602,308.496L155.602,308.496z"/>
				</g>
			</g>
			<g>
				<g>
					<path style="fill:#263238;" d="M164.208,308.496c0,5.32,0,10.64,0,15.96c0,0.483,0.75,0.483,0.75,0c0-5.32,0-10.64,0-15.96
						C164.958,308.014,164.208,308.013,164.208,308.496L164.208,308.496z"/>
				</g>
			</g>
			<g>
				<g>
					<path style="fill:#263238;" d="M172.815,308.496c0,5.32,0,10.64,0,15.96c0,0.483,0.75,0.483,0.75,0c0-5.32,0-10.64,0-15.96
						C173.565,308.014,172.815,308.013,172.815,308.496L172.815,308.496z"/>
				</g>
			</g>
			<g>
				<g>
					<path style="fill:#263238;" d="M181.421,308.496c0,5.32,0,10.64,0,15.96c0,0.483,0.75,0.483,0.75,0c0-5.32,0-10.64,0-15.96
						C182.171,308.014,181.421,308.013,181.421,308.496L181.421,308.496z"/>
				</g>
			</g>
			<g>
				<g>
					<path style="fill:#263238;" d="M190.028,308.496c0,5.32,0,10.64,0,15.96c0,0.483,0.75,0.483,0.75,0c0-5.32,0-10.64,0-15.96
						C190.778,308.014,190.028,308.013,190.028,308.496L190.028,308.496z"/>
				</g>
			</g>
			<g>
				<g>
					<path style="fill:#263238;" d="M147.795,308.496c0,5.32,0,10.64,0,15.96c0,0.483,0.75,0.483,0.75,0c0-5.32,0-10.64,0-15.96
						C148.545,308.014,147.795,308.013,147.795,308.496L147.795,308.496z"/>
				</g>
			</g>
			<g>
				<g>
					<path style="fill:#263238;" d="M140.256,308.496c0,5.32,0,10.64,0,15.96c0,0.483,0.75,0.483,0.75,0c0-5.32,0-10.64,0-15.96
						C141.006,308.014,140.256,308.013,140.256,308.496L140.256,308.496z"/>
				</g>
			</g>
			<g>
				<g>
					<path style="fill:#263238;" d="M132.529,308.616c0,5.32,0,10.64,0,15.961c0,0.482,0.75,0.483,0.75,0c0-5.32,0-10.64,0-15.961
						C133.279,308.133,132.529,308.132,132.529,308.616L132.529,308.616z"/>
				</g>
			</g>
			<g>
				<g>
					<path style="fill:#263238;" d="M127.079,324.397c0-5.26,0-10.521,0-15.781c0-0.483-0.75-0.483-0.75,0c0,5.26,0,10.521,0,15.781
						C126.329,324.879,127.079,324.88,127.079,324.397L127.079,324.397z"/>
				</g>
			</g>
			<g>
				<g>
					<path style="fill:#263238;" d="M191.385,308.121c-16.657,0-33.315,0-49.972,0c-4.724,0-9.447,0-14.171,0
						c-0.483,0-0.483,0.75,0,0.75c16.657,0,33.315,0,49.972,0c4.724,0,9.447,0,14.171,0
						C191.868,308.871,191.869,308.121,191.385,308.121L191.385,308.121z"/>
				</g>
			</g>
		</g>
		<g>
			<rect x="324.322" y="343.885" style="opacity:0.8;fill:#FFFFFF;" width="15.059" height="38.302"/>
			<polygon style="fill:#FFFFFF;" points="339.381,343.885 324.322,357.406 324.322,364.66 339.381,350.902 			"/>
			<rect x="324.322" y="343.885" style="opacity:0.3;" width="15.059" height="2.155"/>
		</g>
		<g>
			<rect x="342.96" y="343.885" style="opacity:0.8;fill:#FFFFFF;" width="15.059" height="38.302"/>
			<polygon style="fill:#FFFFFF;" points="358.019,358.011 342.96,371.532 342.96,378.786 358.019,365.028 			"/>
			<rect x="342.96" y="343.885" style="opacity:0.3;" width="15.059" height="2.155"/>
		</g>
		<rect x="313.414" y="332.136" style="opacity:0.3;" width="55.221" height="3.195"/>
		<g>
			<g>
				<g>
					<path style="fill:#263238;" d="M349.256,370.864c0,5.32,0,10.64,0,15.961c0,0.483,0.75,0.483,0.75,0c0-5.32,0-10.64,0-15.961
						C350.006,370.381,349.256,370.38,349.256,370.864L349.256,370.864z"/>
				</g>
			</g>
			<g>
				<g>
					<path style="fill:#263238;" d="M340.65,370.864c0,5.32,0,10.64,0,15.961c0,0.483,0.75,0.483,0.75,0c0-5.32,0-10.64,0-15.961
						C341.4,370.381,340.65,370.38,340.65,370.864L340.65,370.864z"/>
				</g>
			</g>
			<g>
				<g>
					<path style="fill:#263238;" d="M332.043,370.864c0,5.32,0,10.64,0,15.961c0,0.483,0.75,0.483,0.75,0c0-5.32,0-10.64,0-15.961
						C332.793,370.381,332.043,370.38,332.043,370.864L332.043,370.864z"/>
				</g>
			</g>
			<g>
				<g>
					<path style="fill:#263238;" d="M323.437,370.864c0,5.32,0,10.64,0,15.961c0,0.483,0.75,0.483,0.75,0c0-5.32,0-10.64,0-15.961
						C324.187,370.381,323.437,370.38,323.437,370.864L323.437,370.864z"/>
				</g>
			</g>
			<g>
				<g>
					<path style="fill:#263238;" d="M314.83,370.864c0,5.32,0,10.64,0,15.961c0,0.483,0.75,0.483,0.75,0c0-5.32,0-10.64,0-15.961
						C315.58,370.381,314.83,370.38,314.83,370.864L314.83,370.864z"/>
				</g>
			</g>
			<g>
				<g>
					<path style="fill:#263238;" d="M357.063,370.864c0,5.32,0,10.64,0,15.961c0,0.483,0.75,0.483,0.75,0c0-5.32,0-10.64,0-15.961
						C357.813,370.381,357.063,370.38,357.063,370.864L357.063,370.864z"/>
				</g>
			</g>
			<g>
				<g>
					<path style="fill:#263238;" d="M364.602,370.864c0,5.32,0,10.64,0,15.961c0,0.483,0.75,0.483,0.75,0c0-5.32,0-10.64,0-15.961
						C365.352,370.381,364.602,370.38,364.602,370.864L364.602,370.864z"/>
				</g>
			</g>
			<g>
				<g>
					<path style="fill:#263238;" d="M372.329,370.983c0,5.32,0,10.64,0,15.96c0,0.483,0.75,0.483,0.75,0c0-5.32,0-10.64,0-15.96
						C373.079,370.5,372.329,370.5,372.329,370.983L372.329,370.983z"/>
				</g>
			</g>
			<g>
				<g>
					<path style="fill:#263238;" d="M379.279,386.764c0-5.26,0-10.521,0-15.781c0-0.483-0.75-0.483-0.75,0c0,5.26,0,10.521,0,15.781
						C378.529,387.247,379.279,387.247,379.279,386.764L379.279,386.764z"/>
				</g>
			</g>
			<g>
				<g>
					<path style="fill:#263238;" d="M314.223,371.239c16.657,0,33.315,0,49.972,0c4.724,0,9.448,0,14.171,0
						c0.483,0,0.483-0.75,0-0.75c-16.657,0-33.315,0-49.972,0c-4.724,0-9.448,0-14.171,0
						C313.74,370.489,313.739,371.239,314.223,371.239L314.223,371.239z"/>
				</g>
			</g>
		</g>
		<rect x="139.78" y="332.136" style="opacity:0.3;" width="54.875" height="3.195"/>
		<g>
			<g>
				<g>
					<path style="fill:#263238;" d="M155.602,370.893c0,5.32,0,10.64,0,15.96c0,0.483,0.75,0.483,0.75,0c0-5.32,0-10.64,0-15.96
						C156.352,370.41,155.602,370.409,155.602,370.893L155.602,370.893z"/>
				</g>
			</g>
			<g>
				<g>
					<path style="fill:#263238;" d="M164.208,370.893c0,5.32,0,10.64,0,15.96c0,0.483,0.75,0.483,0.75,0c0-5.32,0-10.64,0-15.96
						C164.958,370.41,164.208,370.409,164.208,370.893L164.208,370.893z"/>
				</g>
			</g>
			<g>
				<g>
					<path style="fill:#263238;" d="M172.815,370.893c0,5.32,0,10.64,0,15.96c0,0.483,0.75,0.483,0.75,0c0-5.32,0-10.64,0-15.96
						C173.565,370.41,172.815,370.409,172.815,370.893L172.815,370.893z"/>
				</g>
			</g>
			<g>
				<g>
					<path style="fill:#263238;" d="M181.421,370.893c0,5.32,0,10.64,0,15.96c0,0.483,0.75,0.483,0.75,0c0-5.32,0-10.64,0-15.96
						C182.171,370.41,181.421,370.409,181.421,370.893L181.421,370.893z"/>
				</g>
			</g>
			<g>
				<g>
					<path style="fill:#263238;" d="M190.028,370.893c0,5.32,0,10.64,0,15.96c0,0.483,0.75,0.483,0.75,0c0-5.32,0-10.64,0-15.96
						C190.778,370.41,190.028,370.409,190.028,370.893L190.028,370.893z"/>
				</g>
			</g>
			<g>
				<g>
					<path style="fill:#263238;" d="M147.795,370.893c0,5.32,0,10.64,0,15.96c0,0.483,0.75,0.483,0.75,0c0-5.32,0-10.64,0-15.96
						C148.545,370.41,147.795,370.409,147.795,370.893L147.795,370.893z"/>
				</g>
			</g>
			<g>
				<g>
					<path style="fill:#263238;" d="M140.256,370.893c0,5.32,0,10.64,0,15.96c0,0.483,0.75,0.483,0.75,0c0-5.32,0-10.64,0-15.96
						C141.006,370.41,140.256,370.409,140.256,370.893L140.256,370.893z"/>
				</g>
			</g>
			<g>
				<g>
					<path style="fill:#263238;" d="M132.529,371.012c0,5.32,0,10.64,0,15.96c0,0.483,0.75,0.483,0.75,0c0-5.32,0-10.64,0-15.96
						C133.279,370.529,132.529,370.529,132.529,371.012L132.529,371.012z"/>
				</g>
			</g>
			<g>
				<g>
					<path style="fill:#263238;" d="M127.079,386.793c0-5.26,0-10.521,0-15.781c0-0.483-0.75-0.483-0.75,0c0,5.26,0,10.521,0,15.781
						C126.329,387.276,127.079,387.276,127.079,386.793L127.079,386.793z"/>
				</g>
			</g>
			<g>
				<g>
					<path style="fill:#263238;" d="M194.854,370.518c-17.69,0-35.38,0-53.07,0c-4.847,0-9.694,0-14.541,0
						c-0.483,0-0.483,0.75,0,0.75c17.69,0,35.38,0,53.07,0c4.847,0,9.694,0,14.541,0
						C195.336,371.268,195.337,370.518,194.854,370.518L194.854,370.518z"/>
				</g>
			</g>
		</g>
		<g>
			<g>
				<g>
					<path style="fill:#263238;" d="M163.934,128.121c0,5.32,0,10.64,0,15.96c0,0.483,0.75,0.483,0.75,0c0-5.32,0-10.64,0-15.96
						C164.684,127.639,163.934,127.638,163.934,128.121L163.934,128.121z"/>
				</g>
			</g>
			<g>
				<g>
					<path style="fill:#263238;" d="M172.541,128.121c0,5.32,0,10.64,0,15.96c0,0.483,0.75,0.483,0.75,0c0-5.32,0-10.64,0-15.96
						C173.291,127.639,172.541,127.638,172.541,128.121L172.541,128.121z"/>
				</g>
			</g>
			<g>
				<g>
					<path style="fill:#263238;" d="M181.147,128.121c0,5.32,0,10.64,0,15.96c0,0.483,0.75,0.483,0.75,0c0-5.32,0-10.64,0-15.96
						C181.897,127.639,181.147,127.638,181.147,128.121L181.147,128.121z"/>
				</g>
			</g>
			<g>
				<g>
					<path style="fill:#263238;" d="M189.754,128.121c0,5.32,0,10.64,0,15.96c0,0.483,0.75,0.483,0.75,0c0-5.32,0-10.64,0-15.96
						C190.504,127.639,189.754,127.638,189.754,128.121L189.754,128.121z"/>
				</g>
			</g>
			<g>
				<g>
					<path style="fill:#263238;" d="M156.128,128.121c0,5.32,0,10.64,0,15.96c0,0.483,0.75,0.483,0.75,0c0-5.32,0-10.64,0-15.96
						C156.878,127.639,156.128,127.638,156.128,128.121L156.128,128.121z"/>
				</g>
			</g>
			<g>
				<g>
					<path style="fill:#263238;" d="M148.589,128.121c0,5.32,0,10.64,0,15.96c0,0.483,0.75,0.483,0.75,0c0-5.32,0-10.64,0-15.96
						C149.339,127.639,148.589,127.638,148.589,128.121L148.589,128.121z"/>
				</g>
			</g>
			<g>
				<g>
					<path style="fill:#263238;" d="M140.861,128.24c0,5.32,0,10.64,0,15.96c0,0.483,0.75,0.483,0.75,0c0-5.32,0-10.64,0-15.96
						C141.611,127.758,140.861,127.757,140.861,128.24L140.861,128.24z"/>
				</g>
			</g>
			<g>
				<g>
					<path style="fill:#263238;" d="M135.412,144.021c0-5.26,0-10.521,0-15.781c0-0.483-0.75-0.483-0.75,0c0,5.26,0,10.521,0,15.781
						C134.662,144.504,135.412,144.505,135.412,144.021L135.412,144.021z"/>
				</g>
			</g>
			<g>
				<g>
					<path style="fill:#263238;" d="M194.956,127.746c-15.216,0-30.433,0-45.649,0c-4.577,0-9.155,0-13.732,0
						c-0.483,0-0.483,0.75,0,0.75c15.429,0,30.857,0,46.286,0c4.365,0,8.73,0,13.095,0
						C195.438,128.496,195.439,127.746,194.956,127.746L194.956,127.746z"/>
				</g>
			</g>
		</g>
		<g>
			<g>
				<g>
					<path style="fill:#263238;" d="M343.834,128.121c0,5.32,0,10.64,0,15.96c0,0.483,0.75,0.483,0.75,0c0-5.32,0-10.64,0-15.96
						C344.584,127.639,343.834,127.638,343.834,128.121L343.834,128.121z"/>
				</g>
			</g>
			<g>
				<g>
					<path style="fill:#263238;" d="M335.227,128.121c0,5.32,0,10.64,0,15.96c0,0.483,0.75,0.483,0.75,0c0-5.32,0-10.64,0-15.96
						C335.977,127.639,335.227,127.638,335.227,128.121L335.227,128.121z"/>
				</g>
			</g>
			<g>
				<g>
					<path style="fill:#263238;" d="M326.621,128.121c0,5.32,0,10.64,0,15.96c0,0.483,0.75,0.483,0.75,0c0-5.32,0-10.64,0-15.96
						C327.371,127.639,326.621,127.638,326.621,128.121L326.621,128.121z"/>
				</g>
			</g>
			<g>
				<g>
					<path style="fill:#263238;" d="M318.014,128.121c0,5.32,0,10.64,0,15.96c0,0.483,0.75,0.483,0.75,0c0-5.32,0-10.64,0-15.96
						C318.764,127.639,318.014,127.638,318.014,128.121L318.014,128.121z"/>
				</g>
			</g>
			<g>
				<g>
					<path style="fill:#263238;" d="M351.641,128.121c0,5.32,0,10.64,0,15.96c0,0.483,0.75,0.483,0.75,0c0-5.32,0-10.64,0-15.96
						C352.391,127.639,351.641,127.638,351.641,128.121L351.641,128.121z"/>
				</g>
			</g>
			<g>
				<g>
					<path style="fill:#263238;" d="M359.18,128.121c0,5.32,0,10.64,0,15.96c0,0.483,0.75,0.483,0.75,0c0-5.32,0-10.64,0-15.96
						C359.93,127.639,359.18,127.638,359.18,128.121L359.18,128.121z"/>
				</g>
			</g>
			<g>
				<g>
					<path style="fill:#263238;" d="M366.907,128.24c0,5.32,0,10.64,0,15.96c0,0.483,0.75,0.483,0.75,0c0-5.32,0-10.64,0-15.96
						C367.657,127.758,366.907,127.757,366.907,128.24L366.907,128.24z"/>
				</g>
			</g>
			<g>
				<g>
					<path style="fill:#263238;" d="M373.856,144.021c0-5.26,0-10.521,0-15.781c0-0.483-0.75-0.483-0.75,0c0,5.26,0,10.521,0,15.781
						C373.106,144.504,373.856,144.505,373.856,144.021L373.856,144.021z"/>
				</g>
			</g>
			<g>
				<g>
					<path style="fill:#263238;" d="M313.563,128.496c15.216,0,30.433,0,45.649,0c4.577,0,9.155,0,13.732,0
						c0.483,0,0.483-0.75,0-0.75c-15.429,0-30.857,0-46.286,0c-4.365,0-8.73,0-13.095,0
						C313.08,127.746,313.079,128.496,313.563,128.496L313.563,128.496z"/>
				</g>
			</g>
		</g>
		<g>
			<rect x="198.61" y="76.552" style="opacity:0.8;fill:#FFFFFF;" width="107.495" height="314.649"/>
			<polygon style="opacity:0.1;" points="198.61,308.651 221.074,308.651 221.074,271.654 253.862,271.654 253.862,232.727 
				253.862,160.901 285.51,160.901 285.51,208.895 306.105,208.895 306.105,391.202 198.61,391.202 			"/>
			<polygon style="opacity:0.2;fill:#FFFFFF;" points="307.875,233.178 199.129,310.503 199.129,343.186 307.875,266.213 			"/>
			<polygon style="opacity:0.2;fill:#FFFFFF;" points="307.355,280.029 198.61,357.354 198.61,368.399 307.355,293.751 			"/>
			<polygon style="opacity:0.2;fill:#FFFFFF;" points="306.105,123.671 198.61,200.996 198.61,212.04 306.105,137.393 			"/>
			<rect x="194.956" y="76.74" style="opacity:0.3;" width="118.5" height="4.477"/>
			<g>
				<g>
					<path style="fill:#407BFF;" d="M197.188,152.923c28.625,0,57.25,0,85.874,0c8.155,0,16.309,0,24.464,0
						c0.483,0,0.483-0.75,0-0.75c-28.625,0-57.249,0-85.874,0c-8.155,0-16.309,0-24.464,0
						C196.706,152.173,196.705,152.923,197.188,152.923L197.188,152.923z"/>
				</g>
			</g>
			<g>
				<g>
					<path style="fill:#407BFF;" d="M196.813,187.017c29.472,0,58.944,0,88.416,0c8.177,0,16.354,0,24.531,0
						c0.483,0,0.483-0.75,0-0.75c-29.472,0-58.944,0-88.416,0c-8.177,0-16.354,0-24.531,0
						C196.331,186.267,196.33,187.017,196.813,187.017L196.813,187.017z"/>
				</g>
			</g>
			<g>
				<g>
					<path style="fill:#407BFF;" d="M197.36,221.11c29.287,0,58.574,0,87.86,0c8.18,0,16.36,0,24.539,0c0.483,0,0.483-0.75,0-0.75
						c-29.287,0-58.574,0-87.86,0c-8.18,0-16.36,0-24.54,0C196.877,220.36,196.876,221.11,197.36,221.11L197.36,221.11z"/>
				</g>
			</g>
			<g>
				<g>
					<path style="fill:#407BFF;" d="M196.838,255.203c29.465,0,58.93,0,88.394,0c8.176,0,16.352,0,24.528,0
						c0.483,0,0.483-0.75,0-0.75c-29.465,0-58.93,0-88.394,0c-8.176,0-16.352,0-24.528,0
						C196.355,254.453,196.354,255.203,196.838,255.203L196.838,255.203z"/>
				</g>
			</g>
			<g>
				<g>
					<path style="fill:#407BFF;" d="M196.838,289.297c29.465,0,58.93,0,88.394,0c8.176,0,16.352,0,24.528,0
						c0.483,0,0.483-0.75,0-0.75c-29.465,0-58.93,0-88.394,0c-8.176,0-16.352,0-24.528,0
						C196.355,288.547,196.354,289.297,196.838,289.297L196.838,289.297z"/>
				</g>
			</g>
			<g>
				<g>
					<path style="fill:#407BFF;" d="M199.421,323.39c28.625,0,57.249,0,85.874,0c8.155,0,16.309,0,24.464,0
						c0.483,0,0.483-0.75,0-0.75c-28.625,0-57.249,0-85.874,0c-8.155,0-16.309,0-24.464,0
						C198.939,322.64,198.938,323.39,199.421,323.39L199.421,323.39z"/>
				</g>
			</g>
			<g>
				<g>
					<path style="fill:#407BFF;" d="M199.421,357.483c28.625,0,57.249,0,85.874,0c8.155,0,16.309,0,24.464,0
						c0.483,0,0.483-0.75,0-0.75c-28.625,0-57.249,0-85.874,0c-8.155,0-16.309,0-24.464,0
						C198.939,356.733,198.938,357.483,199.421,357.483L199.421,357.483z"/>
				</g>
			</g>
			<g>
				<g>
					<path style="fill:#407BFF;" d="M197.188,118.263c29.292,0,58.584,0,87.876,0c8.232,0,16.463,0,24.695,0
						c0.483,0,0.483-0.75,0-0.75c-29.292,0-58.584,0-87.876,0c-8.232,0-16.463,0-24.695,0
						C196.706,117.513,196.705,118.263,197.188,118.263L197.188,118.263z"/>
				</g>
			</g>
			<g>
				<g>
					<path style="fill:#407BFF;" d="M232.639,75.626c0,40.974,0,81.947,0,122.921c0,40.765,0,81.529,0,122.294
						c0,22.995,0,45.991,0,68.986c0,0.483,0.75,0.483,0.75,0c0-40.974,0-81.947,0-122.921c0-40.765,0-81.529,0-122.294
						c0-22.995,0-45.991,0-68.986C233.389,75.144,232.639,75.143,232.639,75.626L232.639,75.626z"/>
				</g>
			</g>
			<g>
				<g>
					<path style="fill:#407BFF;" d="M273.252,75.626c0,40.974,0,81.947,0,122.921c0,40.765,0,81.529,0,122.294
						c0,22.995,0,45.991,0,68.986c0,0.483,0.75,0.483,0.75,0c0-40.974,0-81.947,0-122.921c0-40.765,0-81.529,0-122.294
						c0-22.995,0-45.991,0-68.986C274.002,75.144,273.252,75.143,273.252,75.626L273.252,75.626z"/>
				</g>
			</g>
		</g>
		<rect x="139.78" y="403.338" style="opacity:0.2;" width="228.744" height="5.076"/>
		<rect x="223.326" y="410.593" style="fill:#263238;" width="58.246" height="61.202"/>
		<g>
			<path style="fill:#263238;" d="M145.659,412.749v51.991l20.419,0.181c0,0-0.003-52.172,0.215-52.172
				C166.511,412.749,145.659,412.749,145.659,412.749z"/>
			<g>
				<rect x="147.203" y="414.133" style="fill:#407BFF;" width="17.529" height="49.04"/>
				<rect x="147.203" y="414.133" style="opacity:0.8;fill:#FFFFFF;" width="17.529" height="49.04"/>
				<rect x="147.203" y="414.133" style="opacity:0.2;" width="17.529" height="2.851"/>
				<path style="opacity:0.3;fill:#FFFFFF;" d="M162.459,414.133c-0.434,0-15.256,30.019-15.256,30.019v-30.019H162.459z"/>
			</g>
		</g>
		<g>
			<rect x="225.91" y="412.986" style="fill:#407BFF;" width="25.289" height="56.415"/>
			<rect x="254.319" y="412.986" style="fill:#407BFF;" width="24.669" height="56.415"/>
		</g>
		<g style="opacity:0.8;">
			<rect x="225.91" y="412.986" style="fill:#FFFFFF;" width="25.289" height="56.415"/>
			<path style="opacity:0.2;" d="M225.91,437.133h8.026v10.265h5.838c0,0,0.316,22.003,0,22.003c-0.316,0-13.863,0-13.863,0V437.133
				z"/>
			<rect x="254.319" y="412.986" style="fill:#FFFFFF;" width="24.669" height="56.415"/>
		</g>
		<rect x="225.91" y="412.986" style="opacity:0.2;" width="53.078" height="3.61"/>
		<path style="opacity:0.3;fill:#FFFFFF;" d="M225.91,445.706c0,0,25.289-25.876,25.289-25.402c0,0.473,0,15.62,0,15.62
			l-25.289,27.296V445.706z"/>
		<path style="opacity:0.3;fill:#FFFFFF;" d="M254.057,445.706c0,0,24.931-25.876,24.931-25.402c0,0.473,0,15.62,0,15.62
			l-24.931,27.296V445.706z"/>
		<g>
			<g>
				<rect x="198.783" y="405.876" style="fill:#263238;" width="11.478" height="65.918"/>
				<rect x="198.783" y="406.043" style="opacity:0.2;" width="11.497" height="0.925"/>
				<rect x="197.218" y="401.452" style="fill:#263238;" width="14.616" height="4.591"/>
				<rect x="197.218" y="403.747" style="opacity:0.2;" width="14.616" height="0.925"/>
			</g>
			<g>
				<rect x="298.744" y="406.262" style="fill:#263238;" width="11.478" height="65.533"/>
				<rect x="298.735" y="406.043" style="opacity:0.2;" width="11.497" height="0.925"/>
				<rect x="297.175" y="401.452" style="fill:#263238;" width="14.616" height="4.591"/>
				<rect x="297.17" y="403.747" style="opacity:0.2;" width="14.616" height="0.925"/>
			</g>
			<g>
				<g>
					<rect x="139.78" y="393.977" style="fill:#263238;" width="228.851" height="9.899"/>
				</g>
			</g>
		</g>
		<rect x="268.062" y="454.187" style="opacity:0.2;" width="10.927" height="15.214"/>
		<rect x="190.045" y="68.419" style="fill:#263238;" width="127.634" height="8.321"/>
		<rect x="158.979" y="103.33" style="opacity:0.3;" width="35.874" height="2.276"/>
		<rect x="313.478" y="103.33" style="opacity:0.3;" width="36.95" height="2.276"/>
		<rect x="248.868" y="441.194" style="fill:#263238;" width="7.163" height="13.692"/>
		<rect x="194.854" y="369.979" style="fill:#263238;" width="118.844" height="25.894"/>
		<g>
			<path style="fill:#407BFF;" d="M223.264,376.254v14.29h-4.042v-5.573h-5.512v5.573h-4.042v-14.29h4.042v5.369h5.512v-5.369
				H223.264z"/>
			<path style="fill:#407BFF;" d="M229.474,383.399c0-4.287,3.368-7.431,7.941-7.431c4.573,0,7.941,3.144,7.941,7.431
				c0,4.287-3.368,7.431-7.941,7.431C232.843,390.83,229.474,387.686,229.474,383.399z M241.274,383.399
				c0-2.47-1.695-4.083-3.859-4.083c-2.164,0-3.858,1.613-3.858,4.083c0,2.47,1.695,4.083,3.858,4.083
				C239.58,387.482,241.274,385.869,241.274,383.399z"/>
			<path style="fill:#407BFF;" d="M254.405,379.459h-4.389v-3.205h12.8v3.205h-4.369v11.085h-4.042V379.459z"/>
			<path style="fill:#407BFF;" d="M279.886,387.42v3.124h-11.473v-14.29h11.208v3.123h-7.206v2.409h6.349v3.021h-6.349v2.613
				H279.886z"/>
			<path style="fill:#407BFF;" d="M286.219,376.254h4.042v11.085h6.819v3.205h-10.861V376.254z"/>
		</g>
		<circle style="fill:#407BFF;" cx="299.815" cy="376.864" r="0.899"/>
		<circle style="fill:#407BFF;" cx="302.284" cy="376.864" r="0.899"/>
		<circle style="fill:#407BFF;" cx="304.753" cy="376.864" r="0.899"/>
		<circle style="fill:#407BFF;" cx="307.222" cy="376.864" r="0.899"/>
		<g>
			<g>
				<path d="M140.616,394.956c29.796,0,59.591,0,89.387,0c29.712,0,59.425,0,89.137,0c16.729,0,33.458,0,50.186,0
					c0.483,0,0.483-0.75,0-0.75c-29.796,0-59.591,0-89.387,0c-29.712,0-59.425,0-89.137,0c-16.729,0-33.457,0-50.186,0
					C140.134,394.206,140.133,394.956,140.616,394.956L140.616,394.956z"/>
			</g>
		</g>
	</g>
</g>
<g id="Floor">
	<g>
		<g>
			<path style="fill:#263238;" d="M27.459,472.545c58.041,0,116.083,0,174.124,0c57.745,0,115.491,0,173.236,0
				c32.574,0,65.148,0,97.723,0c0.965,0,0.967-1.5,0-1.5c-58.041,0-116.083,0-174.124,0c-57.745,0-115.491,0-173.236,0
				c-32.574,0-65.148,0-97.723,0C26.493,471.045,26.492,472.545,27.459,472.545L27.459,472.545z"/>
		</g>
	</g>
</g>
<g id="Street_Lamps">
	<g>
		<g>
			<path d="M122.766,410.707h1.349c0-15.202-12.368-27.572-27.572-27.572v1.348C111.003,384.483,122.766,396.246,122.766,410.707z"
				/>
			<path style="fill:#263238;" d="M122.766,410.707h1.349c0-15.202-12.368-27.572-27.572-27.572v1.348
				C111.003,384.483,122.766,396.246,122.766,410.707z"/>
			<g style="opacity:0.3;">
				<path style="fill:#FFFFFF;" d="M122.766,410.707h1.349c0-15.202-12.368-27.572-27.572-27.572v1.348
					C111.003,384.483,122.766,396.246,122.766,410.707z"/>
			</g>
			<path style="fill:#263238;" d="M98.465,385.509H82.304c0-2.242,1.896-4.016,4.134-3.867l10.577,0.706
				c0.816,0.054,1.451,0.732,1.451,1.55v1.611H98.465z"/>
			<path style="opacity:0.5;fill:#FFFFFF;enable-background:new    ;" d="M98.465,385.509H82.304c0-2.242,1.896-4.016,4.134-3.867
				l10.577,0.706c0.816,0.054,1.451,0.732,1.451,1.55v1.611H98.465z"/>
			<path style="fill:#407BFF;" d="M96.892,387.083H83.878c-0.869,0-1.574-0.704-1.574-1.574h16.161
				C98.465,386.378,97.761,387.083,96.892,387.083L96.892,387.083z"/>
			<path style="opacity:0.8;fill:#FFFFFF;enable-background:new    ;" d="M96.892,387.083H83.878c-0.869,0-1.574-0.704-1.574-1.574
				h16.161C98.465,386.378,97.761,387.083,96.892,387.083L96.892,387.083z"/>
			<path style="fill:#263238;" d="M119.218,471.282h8.442l-1.004-20.14c-0.042-0.84-0.734-1.499-1.575-1.499h-3.285
				c-0.841,0-1.533,0.66-1.575,1.499l-1.004,20.14H119.218z"/>
			<path style="fill:#263238;" d="M124.054,407.494h-1.229c-0.57,0-1.032,0.462-1.032,1.032v42.81h3.291v-42.81
				c0-0.57-0.462-1.032-1.032-1.032H124.054z"/>
		</g>
	</g>
	<g>
		<g>
			<path d="M379.891,410.707h-1.349c0-15.202,12.368-27.572,27.572-27.572v1.348C391.654,384.483,379.891,396.246,379.891,410.707z"
				/>
			<path style="fill:#263238;" d="M379.891,410.707h-1.349c0-15.202,12.368-27.572,27.572-27.572v1.348
				C391.654,384.483,379.891,396.246,379.891,410.707z"/>
			<g style="opacity:0.3;">
				<path style="fill:#FFFFFF;" d="M379.891,410.707h-1.349c0-15.202,12.368-27.572,27.572-27.572v1.348
					C391.654,384.483,379.891,396.246,379.891,410.707z"/>
			</g>
			<path style="fill:#263238;" d="M404.191,385.509h16.161c0-2.242-1.896-4.016-4.134-3.867l-10.578,0.706
				c-0.816,0.054-1.451,0.732-1.451,1.55v1.611H404.191z"/>
			<path style="opacity:0.5;fill:#FFFFFF;enable-background:new    ;" d="M404.191,385.509h16.161c0-2.242-1.896-4.016-4.134-3.867
				l-10.578,0.706c-0.816,0.054-1.451,0.732-1.451,1.55v1.611H404.191z"/>
			<path style="fill:#407BFF;" d="M405.765,387.083h13.014c0.869,0,1.574-0.704,1.574-1.574h-16.161
				C404.191,386.378,404.896,387.083,405.765,387.083L405.765,387.083z"/>
			<path style="opacity:0.8;fill:#FFFFFF;enable-background:new    ;" d="M405.765,387.083h13.014c0.869,0,1.574-0.704,1.574-1.574
				h-16.161C404.191,386.378,404.896,387.083,405.765,387.083L405.765,387.083z"/>
			<path style="fill:#263238;" d="M383.438,471.282h-8.442l1.004-20.14c0.042-0.84,0.734-1.499,1.575-1.499h3.285
				c0.841,0,1.533,0.66,1.575,1.499l1.004,20.14H383.438z"/>
			<path style="fill:#263238;" d="M378.603,407.494h1.229c0.569,0,1.032,0.462,1.032,1.032v42.81h-3.292v-42.81
				c0-0.57,0.462-1.032,1.032-1.032H378.603z"/>
		</g>
	</g>
</g>
<g id="Trees">
	<g>
		<path style="fill:#407BFF;" d="M43.395,427.617c0,0-14.242,6.68-15.698-8.539c0,0-10.721-11.514,3.442-14.558
			c0,0,0.265-11.912,10.721-5.956c0,0-0.795-14.558,12.486-8.557c0,0,8.555-11.758,15.106-0.012c0,0,8.802-0.034,5.625,11.083
			c0,0,16.544,6.617,7.544,14.558c0,0,2.148,13.284-9.754,12.71c0,0-8.906,8.069-16.716-0.931
			C56.152,427.415,48.637,434.037,43.395,427.617L43.395,427.617z"/>
		<path style="opacity:0.3;enable-background:new    ;" d="M43.395,427.617c0,0-14.242,6.68-15.698-8.539
			c0,0-10.721-11.514,3.442-14.558c0,0,0.265-11.912,10.721-5.956c0,0-0.795-14.558,12.486-8.557c0,0,8.555-11.758,15.106-0.012
			c0,0,8.802-0.034,5.625,11.083c0,0,16.544,6.617,7.544,14.558c0,0,2.148,13.284-9.754,12.71c0,0-8.906,8.069-16.716-0.931
			C56.152,427.415,48.637,434.037,43.395,427.617L43.395,427.617z"/>
		<path style="opacity:0.2;enable-background:new    ;" d="M74.443,419.771c0,0-9.97,8.201-18.71-0.947c0,0-8.41,6.731-14.277,0.205
			c0,0-12.906,4.908-17.571-8.68l-0.025-0.125c-0.505,4.18,3.839,8.853,3.839,8.853c1.456,15.219,15.698,8.539,15.698,8.539
			c5.242,6.422,12.756-0.202,12.756-0.202c7.807,9,16.716,0.931,16.716,0.931c9.864,0.475,10.076-8.544,9.86-11.657
			c-1.357,1.91-3.852,3.276-8.286,3.081V419.771z"/>
		<path style="fill:#263238;" d="M40.38,417.571c0,0,5.728,7.237,6.951,10.032c1.481,3.389,2.29,10.329,2.776,14.53
			c0.682,5.901,0.62,18.021-0.989,23.738c-0.482,1.716-3.132,6.401-3.132,6.401h13.3c0,0-2.122-7.348-2.504-9.864
			c-0.698-4.604-0.738-14.03,0-18.627c0.491-3.057,2.491-8.993,3.876-11.761c1.431-2.86,4.767-8.359,6.76-10.86
			c1.484-1.864,6.758-6.721,6.758-6.721h-1.767l-6.364,5.585l-1.746-6.571h-1.643l2.258,8.007l-6.449,9.175l-4.654,7.666
			c0,0-4.332-9.304-4.064-12.602c0.104-1.27,2.332-4.537,2.332-4.537h-1.643l-2.76,3.451l-6.171-7.871l-1.125,0.832V417.571z"/>
	</g>
	<g>
		<path style="fill:#407BFF;" d="M431.857,427.139c0,0-14.242,6.68-15.698-8.539c0,0-10.721-11.514,3.442-14.558
			c0,0,0.265-11.912,10.721-5.956c0,0-0.795-14.558,12.486-8.557c0,0,8.555-11.758,15.106-0.012c0,0,8.802-0.034,5.625,11.083
			c0,0,16.544,6.617,7.544,14.558c0,0,2.148,13.285-9.754,12.71c0,0-8.906,8.069-16.715-0.931
			C444.613,426.938,437.099,433.56,431.857,427.139L431.857,427.139z"/>
		<path style="opacity:0.3;enable-background:new    ;" d="M431.857,427.139c0,0-14.242,6.68-15.698-8.539
			c0,0-10.721-11.514,3.442-14.558c0,0,0.265-11.912,10.721-5.956c0,0-0.795-14.558,12.486-8.557c0,0,8.555-11.758,15.106-0.012
			c0,0,8.802-0.034,5.625,11.083c0,0,16.544,6.617,7.544,14.558c0,0,2.148,13.285-9.754,12.71c0,0-8.906,8.069-16.715-0.931
			C444.613,426.938,437.099,433.56,431.857,427.139L431.857,427.139z"/>
		<path style="opacity:0.2;enable-background:new    ;" d="M462.905,419.293c0,0-9.97,8.201-18.71-0.947
			c0,0-8.41,6.732-14.277,0.205c0,0-12.906,4.908-17.571-8.68l-0.025-0.126c-0.505,4.18,3.839,8.853,3.839,8.853
			c1.456,15.219,15.698,8.539,15.698,8.539c5.242,6.422,12.756-0.201,12.756-0.201c7.807,9,16.716,0.931,16.716,0.931
			c9.864,0.475,10.076-8.544,9.86-11.657c-1.357,1.91-3.852,3.276-8.286,3.081V419.293z"/>
		<path style="fill:#263238;" d="M428.841,417.093c0,0,5.728,7.237,6.951,10.032c1.481,3.389,2.29,10.329,2.776,14.53
			c0.682,5.901,0.62,18.021-0.989,23.739c-0.482,1.716-3.133,6.401-3.133,6.401h13.3c0,0-2.122-7.348-2.504-9.864
			c-0.698-4.604-0.738-14.03,0-18.627c0.491-3.057,2.491-8.993,3.876-11.762c1.431-2.86,4.767-8.359,6.76-10.86
			c1.484-1.864,6.758-6.721,6.758-6.721h-1.767l-6.364,5.585l-1.746-6.571h-1.643l2.258,8.007l-6.449,9.175l-4.654,7.666
			c0,0-4.332-9.304-4.064-12.603c0.104-1.27,2.332-4.537,2.332-4.537h-1.643l-2.76,3.451l-6.171-7.871l-1.125,0.832V417.093z"/>
	</g>
</g>
</svg>
