<svg xmlns="http://www.w3.org/2000/svg" viewBox="0 0 2048 2048" width="1280" height="1280"><path transform="translate(1070)" d="m0 0h121v180h242l2 1v239h119l2 1v693l-1 26h343l19 1 1 1v786h130v120h-2048v-120l129-1 1-1267h576l-1-6 1-234h120v-231l1-9h243zm-123 300-1 52v44l1 143-121 1v1388h247l1-787h360l1-1v-600l-120-1v-238l-1-1zm-697 480v1148h455l1-2v-1146zm943 480v668h121l1-532 119 1 1 531h121l1-531 119-1v532h121l1-39v-628l-1-1z" fill="#AE8C67"></path><path transform="translate(1191,900)" d="m0 0h118l2 1v118l-2 1h-118l-1-1v-109z" fill="#AF8E69"></path><path transform="translate(1191,660)" d="m0 0h118l2 1v118l-2 1h-118l-1-1v-87z" fill="#AF8E69"></path><path transform="translate(1071,420)" d="m0 0h118l2 1v118l-2 1h-118l-1-1v-83z" fill="#AF8E69"></path><path transform="translate(951,900)" d="m0 0h118l2 1v118l-2 1h-118l-1-5v-105z" fill="#AF8E69"></path><path transform="translate(951,660)" d="m0 0h118l2 1v118l-2 1h-118l-1-1v-64z" fill="#AF8D69"></path><path transform="translate(416,900)" d="m0 0h118l2 1v118l-2 1h-118l-1-1v-113z" fill="#AF8D69"></path><path transform="translate(416,1157)" d="m0 0h118l2 2v117l-2 1h-118l-1-4v-113z" fill="#AF8D69"></path><path transform="translate(416,1671)" d="m0 0h119l1 2v116l-4 2h-116l-1-4v-114z" fill="#AF8D69"></path><path transform="translate(416,1414)" d="m0 0h119l1 2v116l-2 2h-118l-1-4v-114z" fill="#AF8D69"></path></svg>