<svg xmlns="http://www.w3.org/2000/svg" viewBox="0 0 2048 2048" width="1280" height="1280"><path transform="translate(670,192)" d="m0 0h704l26 2 24 5 20 6 22 9 17 9 17 11 13 10 11 9v2l4 2 10 10 9 11 11 14 13 21 12 25 9 27 5 22 2 16 1 15v798h198l12 2 12 5 13 9 9 10 7 12 4 12 1 6v14l-3 14-8 16-9 10-9 8-13 6-12 3-11 1h-21l1 2v363l-1 19h28l12 2 12 5 13 9 9 10 7 12 4 12 1 6v14l-3 14-8 16-9 10-9 8-13 6-11 3-13 1h-1535l-16-2-13-5-10-7-7-6-9-12-5-11-3-12v-18l4-15 7-13 11-12 8-6 12-6 14-3h29v-384h-26l-15-3-11-5-9-6-7-6-9-12-5-11-3-12v-18l4-15 7-13 11-12 8-6 10-5 9-3 7-1h200v-806l3-24 5-22 8-24 11-24 12-20 16-21 15-16 7-7 11-9 16-12 15-9 19-10 23-9 27-7 19-3zm2 128-18 3-16 6-16 9-13 11-9 9-10 15-8 17-4 14-2 15v797h896v-794l-2-17-4-15-8-17-8-12-11-12-9-8-13-8-12-6-16-5-13-2zm-267 1024v384h213l1-383-1-1zm341 0v384h214v-384zm342 0v384h213v-384zm341 0v384h213l1-383-1-1z" fill="#AE8D68"></path></svg>