<svg xmlns="http://www.w3.org/2000/svg" viewBox="0 0 2048 2048" width="1280" height="1280"><path transform="translate(437,64)" d="m0 0h1170l31 2 27 4 28 7 23 8 27 12 22 12 18 12 12 9 11 9 14 12 16 16 9 11 10 12 12 17 11 18 14 27 11 28 7 23 6 29 3 24 1 18v1165l-1 24-4 31-6 26-8 25-8 20-11 23-10 17-8 12-11 15-9 11-10 11-7 8-16 15-11 9-13 10-20 13-21 12-24 11-25 9-21 6-20 4-31 4-11 1h-14v63l-2 18-5 12-6 10-12 12-10 6-13 5-14 2-15-1-10-3-12-6-12-10-9-12-5-11-3-14v-71h-896v63l-2 18-5 12-7 11-11 11-10 6-13 5-14 2-15-1-10-3-12-6-12-10-9-12-5-11-3-14v-71h-14l-31-3-27-5-26-7-29-11-27-13-20-12-17-12-16-13-13-12-10-9-7-8-11-12-15-20-11-17-10-18-12-25-8-21-7-25-5-24-3-23-1-13v-1189l3-28 5-26 8-28 10-26 11-23 10-17 12-18 9-12 12-14 9-10 17-17 11-9 18-14 17-11 21-12 21-10 21-8 23-7 22-5 29-4zm-3 128-18 2-25 6-19 7-16 8-15 9-12 9-14 12-10 10-11 14-9 13-9 16-9 21-6 19-3 16-2 21v1171l3 26 5 20 6 17 10 21 9 14 9 12 9 10 7 8 10 9 16 12 19 11 19 9 18 6 25 5 8 1 19 1h1154l26-2 20-4 24-8 23-11 18-12 10-8 10-9 12-12 11-14 11-17 8-16 6-15 7-24 3-20 1-15v-1163l-2-22-4-20-5-16-8-20-10-18-9-13-9-11-11-12-12-11-18-13-18-10-15-7-21-7-19-4-20-2z" fill="#AE8D68"></path><path transform="translate(1e3 599)" d="m0 0h45l36 4 29 6 25 7 27 10 28 13 21 12 21 14 16 12 14 12 12 11 17 17 9 11 13 16 18 27 13 23 11 23 11 29 8 28 5 24 3 21 2 28v29l-3 33-5 28-7 27-8 24-13 30-11 21-13 21-10 14-14 18-11 12-7 8-13 13-11 9-10 9-28 20-24 14-17 9-26 11-30 10-29 7-25 4-19 2-16 1h-26l-34-3-28-5-20-5-36-12-27-12-19-10-21-13-14-10-13-10-15-13-7-7-8-7-14-15-11-13-10-13-9-13-12-19-14-27-10-23-8-23-6-21-6-29-3-23-1-12v-44l2-23 5-30 7-28 9-27 11-26 13-25 14-22 13-18 9-11 12-14 24-24 8-7 14-11 15-11 17-11 21-12 30-14 28-10 21-6 24-5 19-3zm2 128-27 4-23 6-19 7-23 11-16 10-14 10-14 12-6 5-7 8-8 8-10 13-12 18-9 16-10 23-7 22-5 25-2 16v37l4 27 5 21 7 20 9 20 11 19 10 14 8 10 9 10 16 16 14 11 18 12 16 9 17 8 19 7 25 6 19 3 12 1h27l26-3 26-6 20-7 20-9 18-10 17-12 11-9 13-12 9-9 9-11 10-13 12-20 11-23 8-22v-2l-108-1-13-2-13-5-10-7-7-6-8-11-5-11-3-11v-20l3-12 6-12 7-9 7-7 11-7 14-5 7-1 111-1 1-2-9-25-8-17-11-19-10-14-8-10-11-12-13-13-14-11-21-14-16-9-19-8-24-8-25-5-15-2z" fill="#AE8D68"></path><path transform="translate(1250,302)" d="m0 0h378l12 3 14 7 12 11 7 9 7 15 2 9v19l-3 12-7 14-9 10-9 8-12 6-10 3-5 1h-376l-12-3-13-7-11-9-9-12-5-11-3-10-1-13 2-14 5-13 7-11 8-9 10-7 10-5z" fill="#AE8D68"></path></svg>